<svg width="87" height="38" viewBox="0 0 87 38" fill="none" xmlns="http://www.w3.org/2000/svg">
<path d="M3.9095 17.2H0.745435V1.84376H3.9095V17.2ZM9.45715 5.78829L9.55208 7.10665C10.3677 6.08712 11.4611 5.57736 12.8322 5.57736C14.0415 5.57736 14.9415 5.93243 15.5322 6.64259C16.1228 7.35275 16.4251 8.41447 16.4392 9.82775V17.2H13.3911V9.90157C13.3911 9.2547 13.2505 8.78712 12.9693 8.49884C12.688 8.20353 12.2204 8.05587 11.5665 8.05587C10.7087 8.05587 10.0654 8.4215 9.63645 9.15275V17.2H6.5884V5.78829H9.45715ZM22.4087 2.98282V5.78829H24.3599V8.02423H22.4087V13.7195C22.4087 14.1414 22.4896 14.4438 22.6513 14.6266C22.813 14.8094 23.1224 14.9008 23.5794 14.9008C23.9169 14.9008 24.2157 14.8762 24.4759 14.827V17.1367C23.8782 17.3195 23.263 17.4109 22.6302 17.4109C20.4927 17.4109 19.4029 16.3317 19.3607 14.1731V8.02423H17.6943V5.78829H19.3607V2.98282H22.4087ZM31.3103 17.4109C29.6368 17.4109 28.2728 16.8977 27.2181 15.8711C26.1704 14.8445 25.6466 13.477 25.6466 11.7684V11.4731C25.6466 10.327 25.8681 9.30392 26.3111 8.40392C26.754 7.49689 27.3798 6.80079 28.1884 6.31564C29.004 5.82345 29.9322 5.57736 30.9728 5.57736C32.5337 5.57736 33.7607 6.06954 34.6536 7.05392C35.5536 8.03829 36.0036 9.434 36.0036 11.241V12.4856H28.7368C28.8353 13.2309 29.1306 13.8285 29.6228 14.2785C30.122 14.7285 30.7513 14.9535 31.5107 14.9535C32.6849 14.9535 33.6025 14.5281 34.2634 13.6774L35.7611 15.3543C35.304 16.0012 34.6853 16.5074 33.9048 16.8731C33.1243 17.2317 32.2595 17.4109 31.3103 17.4109ZM30.9622 8.04532C30.3575 8.04532 29.8654 8.24923 29.4857 8.65704C29.113 9.06486 28.874 9.64845 28.7685 10.4078H33.0083V10.1652C32.9943 9.49025 32.8115 8.96993 32.4599 8.60431C32.1083 8.23165 31.6091 8.04532 30.9622 8.04532ZM44.1564 8.6465C43.7415 8.59025 43.3759 8.56212 43.0595 8.56212C41.9064 8.56212 41.1505 8.95236 40.7919 9.73282V17.2H37.7439V5.78829H40.6232L40.7075 7.14884C41.3193 6.10118 42.1665 5.57736 43.2493 5.57736C43.5868 5.57736 43.9032 5.62306 44.1986 5.71447L44.1564 8.6465ZM46.6771 17.2V8.02423H44.979V5.78829H46.6771V4.81798C46.6771 3.53829 47.0427 2.54689 47.774 1.84376C48.5122 1.13361 49.5423 0.778528 50.8642 0.778528C51.2861 0.778528 51.8029 0.84884 52.4146 0.989465L52.3829 3.35197C52.1298 3.28868 51.8204 3.25704 51.4548 3.25704C50.3087 3.25704 49.7357 3.79493 49.7357 4.87072V5.78829H52.0033V8.02423H49.7357V17.2H46.6771ZM60.1982 17.2C60.0575 16.9258 59.9556 16.5848 59.8923 16.177C59.154 16.9996 58.1943 17.4109 57.013 17.4109C55.895 17.4109 54.9669 17.0875 54.2286 16.4406C53.4974 15.7938 53.1318 14.9781 53.1318 13.9938C53.1318 12.7844 53.5782 11.8563 54.4712 11.2094C55.3712 10.5625 56.6685 10.2356 58.363 10.2285H59.7657V9.57462C59.7657 9.04728 59.6286 8.6254 59.3544 8.309C59.0872 7.99259 58.6618 7.83439 58.0782 7.83439C57.565 7.83439 57.1607 7.95743 56.8654 8.20353C56.5771 8.44962 56.4329 8.78712 56.4329 9.21603H53.3849C53.3849 8.55509 53.5888 7.94337 53.9966 7.38087C54.4044 6.81837 54.981 6.37892 55.7263 6.06251C56.4716 5.73907 57.3083 5.57736 58.2365 5.57736C59.6427 5.57736 60.7572 5.93243 61.5798 6.64259C62.4095 7.34572 62.8243 8.33712 62.8243 9.61681V14.5633C62.8314 15.6461 62.9825 16.4652 63.2779 17.0207V17.2H60.1982ZM57.6775 15.0801C58.1275 15.0801 58.5423 14.9817 58.922 14.7848C59.3017 14.5809 59.5829 14.3102 59.7657 13.9727V12.0109H58.6267C57.1009 12.0109 56.2888 12.5383 56.1904 13.593L56.1798 13.7723C56.1798 14.152 56.3134 14.4649 56.5806 14.7109C56.8478 14.957 57.2134 15.0801 57.6775 15.0801ZM69.9118 14.9535C70.4743 14.9535 70.9314 14.7988 71.2829 14.4895C71.6345 14.1801 71.8173 13.7688 71.8314 13.2555H74.6896C74.6825 14.0289 74.4716 14.7391 74.0568 15.3859C73.6419 16.0258 73.0724 16.525 72.3482 16.8836C71.631 17.2352 70.8365 17.4109 69.9646 17.4109C68.3333 17.4109 67.0466 16.8942 66.1044 15.8606C65.1622 14.8199 64.6911 13.3856 64.6911 11.5574V11.357C64.6911 9.59923 65.1587 8.1965 66.0939 7.14884C67.029 6.10118 68.3122 5.57736 69.9435 5.57736C71.3708 5.57736 72.5134 5.98517 73.3712 6.80079C74.2361 7.60939 74.6755 8.68868 74.6896 10.0387H71.8314C71.8173 9.44806 71.6345 8.96993 71.2829 8.60431C70.9314 8.23165 70.4673 8.04532 69.8908 8.04532C69.1806 8.04532 68.6427 8.30548 68.2771 8.82579C67.9185 9.33907 67.7392 10.1758 67.7392 11.3359V11.6524C67.7392 12.8266 67.9185 13.6703 68.2771 14.1836C68.6357 14.6969 69.1806 14.9535 69.9118 14.9535ZM81.6822 17.4109C80.0087 17.4109 78.6447 16.8977 77.59 15.8711C76.5423 14.8445 76.0185 13.477 76.0185 11.7684V11.4731C76.0185 10.327 76.24 9.30392 76.6829 8.40392C77.1259 7.49689 77.7517 6.80079 78.5603 6.31564C79.3759 5.82345 80.304 5.57736 81.3447 5.57736C82.9056 5.57736 84.1325 6.06954 85.0255 7.05392C85.9255 8.03829 86.3755 9.434 86.3755 11.241V12.4856H79.1087C79.2072 13.2309 79.5025 13.8285 79.9947 14.2785C80.4939 14.7285 81.1232 14.9535 81.8825 14.9535C83.0568 14.9535 83.9743 14.5281 84.6353 13.6774L86.1329 15.3543C85.6759 16.0012 85.0572 16.5074 84.2767 16.8731C83.4962 17.2317 82.6314 17.4109 81.6822 17.4109ZM81.3341 8.04532C80.7294 8.04532 80.2372 8.24923 79.8575 8.65704C79.4849 9.06486 79.2458 9.64845 79.1404 10.4078H83.3802V10.1652C83.3661 9.49025 83.1833 8.96993 82.8318 8.60431C82.4802 8.23165 81.981 8.04532 81.3341 8.04532ZM4.67942 21.8438L8.62395 32.9813L12.5474 21.8438H16.7029V37.2H13.5282V33.0024L13.8447 25.7567L9.69973 37.2H7.52708L3.3927 25.7672L3.70911 33.0024V37.2H0.545044V21.8438H4.67942ZM25.8786 37.2C25.738 36.9258 25.6361 36.5848 25.5728 36.177C24.8345 36.9996 23.8747 37.4109 22.6935 37.4109C21.5755 37.4109 20.6474 37.0875 19.9091 36.4406C19.1779 35.7938 18.8122 34.9781 18.8122 33.9938C18.8122 32.7844 19.2587 31.8563 20.1517 31.2094C21.0517 30.5625 22.349 30.2356 24.0435 30.2285H25.4462V29.5746C25.4462 29.0473 25.3091 28.6254 25.0349 28.309C24.7677 27.9926 24.3423 27.8344 23.7587 27.8344C23.2454 27.8344 22.8411 27.9574 22.5458 28.2035C22.2575 28.4496 22.1134 28.7871 22.1134 29.216H19.0654C19.0654 28.5551 19.2693 27.9434 19.6771 27.3809C20.0849 26.8184 20.6615 26.3789 21.4068 26.0625C22.1521 25.7391 22.9888 25.5774 23.9169 25.5774C25.3232 25.5774 26.4376 25.9324 27.2603 26.6426C28.09 27.3457 28.5048 28.3371 28.5048 29.6168V34.5633C28.5118 35.6461 28.663 36.4652 28.9583 37.0207V37.2H25.8786ZM23.3579 35.0801C23.8079 35.0801 24.2228 34.9817 24.6025 34.7848C24.9822 34.5809 25.2634 34.3102 25.4462 33.9727V32.0109H24.3072C22.7814 32.0109 21.9693 32.5383 21.8708 33.593L21.8603 33.7723C21.8603 34.152 21.9939 34.4649 22.2611 34.7109C22.5282 34.957 22.8939 35.0801 23.3579 35.0801ZM37.2587 28.6465C36.8439 28.5902 36.4782 28.5621 36.1618 28.5621C35.0087 28.5621 34.2529 28.9524 33.8943 29.7328V37.2H30.8462V25.7883H33.7255L33.8099 27.1488C34.4216 26.1012 35.2689 25.5774 36.3517 25.5774C36.6892 25.5774 37.0056 25.6231 37.3009 25.7145L37.2587 28.6465ZM42.8802 32.6227L41.7833 33.7195V37.2H38.7353V21H41.7833V29.9754L42.374 29.216L45.2954 25.7883H48.9552L44.8314 30.5449L49.3138 37.2H45.8122L42.8802 32.6227ZM55.315 37.4109C53.6415 37.4109 52.2775 36.8977 51.2228 35.8711C50.1751 34.8445 49.6513 33.477 49.6513 31.7684V31.4731C49.6513 30.327 49.8728 29.3039 50.3158 28.4039C50.7587 27.4969 51.3845 26.8008 52.1931 26.3156C53.0087 25.8234 53.9368 25.5774 54.9775 25.5774C56.5384 25.5774 57.7654 26.0695 58.6583 27.0539C59.5583 28.0383 60.0083 29.434 60.0083 31.241V32.4856H52.7415C52.84 33.2309 53.1353 33.8285 53.6275 34.2785C54.1267 34.7285 54.756 34.9535 55.5154 34.9535C56.6896 34.9535 57.6072 34.5281 58.2681 33.6774L59.7658 35.3543C59.3087 36.0012 58.69 36.5074 57.9095 36.8731C57.129 37.2317 56.2642 37.4109 55.315 37.4109ZM54.9669 28.0453C54.3622 28.0453 53.87 28.2492 53.4904 28.657C53.1177 29.0649 52.8786 29.6484 52.7732 30.4078H57.013V30.1652C56.999 29.4902 56.8161 28.9699 56.4646 28.6043C56.113 28.2317 55.6138 28.0453 54.9669 28.0453ZM65.3978 22.9828V25.7883H67.349V28.0242H65.3978V33.7195C65.3978 34.1414 65.4786 34.4438 65.6404 34.6266C65.8021 34.8094 66.1115 34.9008 66.5685 34.9008C66.906 34.9008 67.2048 34.8762 67.465 34.827V37.1367C66.8673 37.3195 66.2521 37.4109 65.6193 37.4109C63.4818 37.4109 62.3919 36.3317 62.3497 34.1731V28.0242H60.6833V25.7883H62.3497V22.9828H65.3978Z" fill="#FFF2EA"/>
</svg>
